<?xml version="1.0" standalone="no"?>
<!DOCTYPE svg PUBLIC "-//W3C//DTD SVG 20010904//EN"
 "http://www.w3.org/TR/2001/REC-SVG-20010904/DTD/svg10.dtd">
<svg version="1.0" xmlns="http://www.w3.org/2000/svg"
 width="512.000000pt" height="512.000000pt" viewBox="0 0 512.000000 512.000000"
 preserveAspectRatio="xMidYMid meet">
<metadata>
Created by potrace 1.11, written by Peter Selinger 2001-2013
</metadata>
<g transform="translate(0.000000,512.000000) scale(0.100000,-0.100000)"
fill="#000000" stroke="none">
<path d="M0 2560 l0 -2560 2560 0 2560 0 0 2560 0 2560 -2560 0 -2560 0 0
-2560z m3089 240 c238 -116 437 -210 442 -210 5 0 9 92 9 205 l0 205 50 0 c42
0 79 -14 246 -95 109 -52 199 -95 201 -95 1 0 3 43 3 95 l0 95 50 0 c43 0 89
-19 374 -156 l324 -157 4 -43 3 -44 -101 0 -101 0 -197 95 -196 94 0 -94 0
-95 -54 0 c-48 0 -77 11 -250 94 l-196 95 0 -210 0 -209 -49 0 c-42 0 -94 22
-412 176 -200 97 -414 200 -475 229 l-111 53 -151 -73 -151 -73 -3 76 -3 77
-397 3 -397 2 -3 -79 -3 -79 -164 79 -164 79 -369 0 -368 0 0 -235 0 -235 -80
0 -80 0 0 315 0 315 469 0 468 0 64 -29 64 -29 3 29 3 29 557 -2 557 -3 5 -27
5 -26 65 34 c36 18 67 33 70 33 3 1 200 -94 439 -209z"/>
</g>
</svg>
